<svg width="56" height="56" viewBox="0 0 56 56" fill="none" xmlns="http://www.w3.org/2000/svg">
<rect x="0.5" y="0.5" width="55" height="55" rx="11.5" fill="#1F2326"/>
<rect x="0.5" y="0.5" width="55" height="55" rx="11.5" stroke="#EAAD12"/>
<g clip-path="url(#clip0_27_20)">
<g filter="url(#filter0_d_27_20)">
<path d="M37.5 20.1022L34.4946 35.7923C34.4946 35.7923 34.0741 36.8801 32.9189 36.3584L25.9846 30.8526L25.9524 30.8364C26.8891 29.9654 34.1524 23.2027 34.4698 22.8961C34.9613 22.4214 34.6562 22.1387 34.0856 22.4974L23.3568 29.553L19.2176 28.1108C19.2176 28.1108 18.5663 27.8708 18.5036 27.3491C18.4401 26.8265 19.2391 26.5439 19.2391 26.5439L36.1131 19.6889C36.1131 19.6889 37.5 19.0579 37.5 20.1022V20.1022Z" fill="#EAAD12"/>
</g>
</g>
<defs>
<filter id="filter0_d_27_20" x="-11.5" y="19.5" width="79" height="77" filterUnits="userSpaceOnUse" color-interpolation-filters="sRGB">
<feFlood flood-opacity="0" result="BackgroundImageFix"/>
<feColorMatrix in="SourceAlpha" type="matrix" values="0 0 0 0 0 0 0 0 0 0 0 0 0 0 0 0 0 0 127 0" result="hardAlpha"/>
<feOffset dy="30"/>
<feGaussianBlur stdDeviation="15"/>
<feComposite in2="hardAlpha" operator="out"/>
<feColorMatrix type="matrix" values="0 0 0 0 0 0 0 0 0 0 0 0 0 0 0 0 0 0 0.25 0"/>
<feBlend mode="normal" in2="BackgroundImageFix" result="effect1_dropShadow_27_20"/>
<feBlend mode="normal" in="SourceGraphic" in2="effect1_dropShadow_27_20" result="shape"/>
</filter>
<clipPath id="clip0_27_20">
<rect width="24" height="24" fill="white" transform="translate(16 16)"/>
</clipPath>
</defs>
</svg>
